<svg width="20" height="20" viewBox="0 0 20 20" fill="none" xmlns="http://www.w3.org/2000/svg">
<path d="M7.49992 10C5.19909 10 3.33325 7.30083 3.33325 5V4.16667C3.33325 1.86583 5.19909 0 7.49992 0C9.80075 0 11.6666 1.86583 11.6666 4.16667V5C11.6666 7.30083 9.80075 10 7.49992 10Z" fill="#FF7A00"/>
<path d="M10 16.6667C10 14.9117 10.7783 13.3417 12.005 12.2725C10.7533 11.9442 9.19833 11.6667 7.5 11.6667C5.14667 11.6667 3.05917 12.1983 1.68833 12.6608C0.675 13.0033 0 13.9575 0 15.0267V18.3333H10.245C10.0875 17.805 10 17.2458 10 16.6667Z" fill="#FF7A00"/>
<path d="M14.1668 19.5117L11.3218 16.6667L12.5001 15.4883L14.1668 17.155L18.3334 12.9883L19.5118 14.1667L14.1668 19.5117Z" fill="#FF7A00"/>
</svg>
