<svg xmlns="http://www.w3.org/2000/svg" width="24" height="23.993" viewBox="0 0 24 23.993">
  <g id="Add_Money" data-name="Add Money" transform="translate(-16.129 495.723)">
    <path id="Path_1763" data-name="Path 1763" d="M19.377-495.661a4,4,0,0,0-3.2,3.329c-.045.275-.055,1.782-.045,5.632.02,5.707,0,5.317.29,6.093a4.226,4.226,0,0,0,2.193,2.193c.751.28.591.27,4.02.29l3.184.015.035.265a7.547,7.547,0,0,0,1.7,3.685,7.412,7.412,0,0,0,4,2.313,8.618,8.618,0,0,0,2.824,0,7.235,7.235,0,0,0,5.632-5.632,8.159,8.159,0,0,0-.005-2.769l-.11-.506.115-.4.115-.4v-5.407c0-5.883.015-5.522-.275-6.293a4.279,4.279,0,0,0-.876-1.307,4.115,4.115,0,0,0-1.877-1.076c-.25-.08-1-.085-8.836-.1C21.339-495.727,19.642-495.717,19.377-495.661Zm17.347,1.6a2.47,2.47,0,0,1,1.777,1.872,5.824,5.824,0,0,1,.05.761v.5H17.725v-.541a2.473,2.473,0,0,1,.686-1.917,2.472,2.472,0,0,1,1.121-.666C19.953-494.17,36.289-494.17,36.724-494.059Zm1.827,7.68v2.944l-.591-.581a7,7,0,0,0-3.63-1.968,8.642,8.642,0,0,0-2.663-.025,7.25,7.25,0,0,0-5.712,5.487,5.554,5.554,0,0,0-.12.666v.14H22.886c-1.792,0-3.049-.02-3.214-.05a2.531,2.531,0,0,1-1.642-1.2c-.31-.586-.305-.506-.305-4.621v-3.745H38.551Zm-4.731,1.932a5.643,5.643,0,0,1,4.641,4.506,8.8,8.8,0,0,1,0,2.053,5.713,5.713,0,0,1-4.491,4.491,8.8,8.8,0,0,1-2.053,0A5.656,5.656,0,0,1,28-476.3a5.532,5.532,0,0,1-.035-5.167A5.6,5.6,0,0,1,33.82-484.447Z" transform="translate(0 0)"/>
    <path id="Path_1764" data-name="Path 1764" d="M80.573-303.711a.808.808,0,0,0-.447.89.841.841,0,0,0,.511.565,16.154,16.154,0,0,0,1.937.039c1.681-.015,1.76-.02,1.888-.118a.694.694,0,0,0,.339-.659.694.694,0,0,0-.339-.659c-.128-.1-.2-.1-1.937-.113A9.533,9.533,0,0,0,80.573-303.711Z" transform="translate(-60.837 -182.332)"/>
    <path id="Path_1765" data-name="Path 1765" d="M291.231-223.631a.834.834,0,0,0-.413.437,5.8,5.8,0,0,0-.054.993v.855l-.929.015c-1.018.015-1.062.029-1.3.354a.889.889,0,0,0,0,.845c.241.324.285.339,1.3.354l.929.015.015.929c.015,1.013.029,1.057.354,1.3a.889.889,0,0,0,.845,0c.324-.241.339-.285.354-1.3l.015-.929.929-.015c1.013-.015,1.057-.029,1.3-.354a.889.889,0,0,0,0-.845c-.241-.324-.285-.339-1.3-.354l-.929-.015-.015-.929c-.015-1.013-.03-1.057-.344-1.293A.912.912,0,0,0,291.231-223.631Z" transform="translate(-258.574 -258.33)"/>
  </g>
</svg>
