<svg xmlns="http://www.w3.org/2000/svg" xmlns:xlink="http://www.w3.org/1999/xlink" width="24" height="24" viewBox="0 0 24 24">

  <g id="Mask_Group_72" data-name="Mask Group 72" clip-path="url(#clip-path)">
    <g id="_2135793_attention_news_speaker_statement_icon" data-name="2135793_attention_news_speaker_statement_icon" transform="translate(0 2.081)">
      <path id="XMLID_5_" d="M10.474,8.275v7.766l9.672,5.736a1.2,1.2,0,0,0,1.81-1.032V3.566a1.2,1.2,0,0,0-1.81-1.032Z" transform="translate(-0.288 -2.367)" fill="#337077"/>
      <path id="XMLID_4_" d="M2.942,8.318A2.014,2.014,0,0,0,.931,10.33v3.653a2.014,2.014,0,0,0,2.011,2.011H9.768V8.314H2.942Z" transform="translate(-0.288 -2.367)" fill="#337077"/>
      <path id="XMLID_3_" d="M22.459,8.837v6.648a3.935,3.935,0,0,0,0-6.648Z" transform="translate(-0.288 -2.367)" fill="#337077"/>
      <path id="XMLID_2_" d="M.494,10.282a.2.2,0,0,0-.206.206v3.547H1.9V10.282Z" transform="translate(-0.288 -2.367)" fill="#337077"/>
      <path id="XMLID_1_" d="M7.531,15.264s-1.262,2.822,1.522,6.163a.475.475,0,0,1-.37.778H5.7a.612.612,0,0,1-.538-.317c-.547-1-2.045-4.186-.648-7.08" transform="translate(-0.288 -2.367)" fill="#337077"/>
    </g>
  </g>
</svg>
