<svg xmlns="http://www.w3.org/2000/svg" xmlns:xlink="http://www.w3.org/1999/xlink" width="24" height="24" viewBox="0 0 24 24">

  <g id="Mask_Group_25" data-name="Mask Group 25" transform="translate(-281 -8)" clip-path="url(#clip-path)">
    <path id="_2639769_attach_icon" data-name="2639769_attach_icon" d="M12.374,22.246A5.843,5.843,0,0,1,8.1,20.382a6.542,6.542,0,0,1,0-8.911l6.4-6.757a4.273,4.273,0,0,1,6.261,0,4.787,4.787,0,0,1,0,6.506L14.94,17.37a2.726,2.726,0,0,1-1.992.867h0a2.723,2.723,0,0,1-1.99-.867,3.018,3.018,0,0,1,0-4.1l4.688-4.948a.65.65,0,1,1,.944.894L11.9,14.164a1.7,1.7,0,0,0,0,2.312,1.421,1.421,0,0,0,2.1,0l5.828-6.149a3.471,3.471,0,0,0,0-4.717,2.973,2.973,0,0,0-4.374,0l-6.4,6.757a5.241,5.241,0,0,0,0,7.122,4.526,4.526,0,0,0,6.654,0l4.5-4.753a.65.65,0,1,1,.944.894l-4.5,4.753A5.843,5.843,0,0,1,12.374,22.246Z" transform="translate(278.8 7.202)"/>
  </g>
</svg>
