<svg xmlns="http://www.w3.org/2000/svg" xmlns:xlink="http://www.w3.org/1999/xlink" width="24" height="24" viewBox="0 0 24 24">

  <g id="Mask_Group_81" data-name="Mask Group 81" clip-path="url(#clip-path)">
    <g id="_6619620_business_case_portfolio_seo_suitcase_icon" data-name="6619620_business_case_portfolio_seo_suitcase_icon" transform="translate(0.839 0.737)">
      <path id="Path_200" data-name="Path 200" d="M22.428,7.954H20.2a6.821,6.821,0,0,0-12.657,0H5.324A2.52,2.52,0,0,0,2.759,10.52v.513a5.512,5.512,0,0,0,5.473,5.473H19.606a5.512,5.512,0,0,0,5.473-5.473V10.52A2.647,2.647,0,0,0,22.428,7.954ZM13.876,5.389a5.21,5.21,0,0,1,4.447,2.566H9.429A5.21,5.21,0,0,1,13.876,5.389Z" transform="translate(-2.759 -3.678)" fill="#337077"/>
      <path id="Path_201" data-name="Path 201" d="M19.863,19.124h0v1.71a.855.855,0,1,1-1.71,0v-1.71H9.6v1.71a.808.808,0,0,1-.855.855.808.808,0,0,1-.855-.855v-1.71h0a7.2,7.2,0,0,1-5.131-2.48v5.9A2.52,2.52,0,0,0,5.324,25.11h17.1a2.52,2.52,0,0,0,2.566-2.566v-5.9A7.2,7.2,0,0,1,19.863,19.124Z" transform="translate(-2.759 -4.585)" fill="#337077"/>
    </g>
  </g>
</svg>
