<svg width="27" height="25" viewBox="0 0 27 25" fill="none" xmlns="http://www.w3.org/2000/svg">
    <path d="M20.088 2.99775H22.1187C23.4619 2.99775 24.6826 3.58016 25.5668 4.51779C26.4508 5.45542 27 6.75037 27 8.17451V19.8231C27 21.2476 26.451 22.5422 25.5669 23.4798C24.6828 24.4176 23.4619 25 22.1187 25H4.88125C3.53806 25 2.31744 24.4176 1.43336 23.4798C0.54915 22.5422 0 21.2476 0 19.8231V8.17451C0 6.74997 0.54915 5.45529 1.43336 4.51766C2.31744 3.5799 3.53806 2.99775 4.88125 2.99775H6.91217C7.10409 2.33826 7.47906 1.75807 7.94026 1.28906C8.72444 0.49109 9.80094 0 10.6344 0H16.3655C17.1989 0 18.2756 0.49109 19.0596 1.28906C19.5207 1.75807 19.8957 2.33826 20.0878 2.99775H20.088ZM13.5 7.68943C15.1424 7.68943 16.6301 8.39582 17.7066 9.53752C18.7832 10.6793 19.4492 12.257 19.4492 13.999C19.4492 15.7409 18.7832 17.3185 17.7066 18.4604C16.6298 19.6021 15.1426 20.3085 13.5 20.3085C11.8574 20.3085 10.3702 19.6021 9.29342 18.4604C8.21693 17.3184 7.55087 15.741 7.55087 13.999C7.55087 12.2569 8.21693 10.6795 9.29342 9.53752C10.3699 8.39582 11.8576 7.68943 13.5 7.68943V7.68943ZM16.4125 10.9101C15.6674 10.1198 14.6376 9.63106 13.5 9.63106C12.3625 9.63106 11.3326 10.1198 10.5875 10.9101C9.84257 11.7003 9.3815 12.7926 9.3815 13.999C9.3815 15.2052 9.84257 16.2977 10.5875 17.0878C11.3326 17.878 12.3625 18.367 13.5 18.367C14.6373 18.367 15.6674 17.878 16.4125 17.0878C17.1577 16.2977 17.6185 15.2054 17.6185 13.999C17.6185 12.7925 17.1577 11.7003 16.4125 10.9101V10.9101ZM22.1187 4.93925H19.3118C18.8064 4.93925 18.3965 4.5046 18.3965 3.96857C18.3965 3.48937 18.1429 3.03904 17.794 2.68434C17.3423 2.2246 16.7735 1.94163 16.3656 1.94163H10.6345C10.2267 1.94163 9.6578 2.2246 9.20609 2.68434C8.85723 3.03917 8.6036 3.48937 8.6036 3.96857C8.6036 4.5046 8.19377 4.93925 7.68835 4.93925H4.88137C4.04324 4.93925 3.28061 5.30362 2.72752 5.89021C2.17443 6.47693 1.83075 7.28574 1.83075 8.17464V19.8232C1.83075 20.7119 2.17443 21.521 2.72752 22.1075C3.28073 22.6941 4.04336 23.0586 4.88137 23.0586H22.1189C22.957 23.0586 23.7199 22.6941 24.2728 22.1075C24.8261 21.5208 25.1695 20.7121 25.1695 19.8232V8.17464C25.1695 7.28601 24.8259 6.47693 24.2727 5.89047C23.7195 5.30375 22.9569 4.93925 22.1189 4.93925H22.1187Z" fill="#33A9FF"/>
</svg>
