<svg xmlns="http://www.w3.org/2000/svg" xmlns:xlink="http://www.w3.org/1999/xlink" width="24" height="24" viewBox="0 0 24 24">

  <g id="Mask_Group_67" data-name="Mask Group 67" clip-path="url(#clip-path)">
    <path id="_8665118_book_open_icon" data-name="8665118_book_open_icon" d="M5.236,1.335A11.069,11.069,0,0,0,.675,2.4,1.153,1.153,0,0,0,0,3.454V16.431a.579.579,0,0,0,.815.532,8,8,0,0,1,8.121.508.575.575,0,0,0,.354.12.584.584,0,0,0,.581-.58V3.077A.581.581,0,0,0,9.624,2.6,8.36,8.36,0,0,0,5.236,1.335ZM20.227,2.4a11.367,11.367,0,0,0-4.561-1.062A8.494,8.494,0,0,0,11.278,2.6a.578.578,0,0,0-.247.475v13.9a.593.593,0,0,0,.581.612.579.579,0,0,0,.355-.121,8,8,0,0,1,8.121-.508.579.579,0,0,0,.815-.532V3.453A1.215,1.215,0,0,0,20.227,2.4Z" transform="translate(1.548 2.538)" fill="#337077"/>
  </g>
</svg>
