<svg xmlns="http://www.w3.org/2000/svg" xmlns:xlink="http://www.w3.org/1999/xlink" width="24" height="24" viewBox="0 0 24 24">
  <g id="Mask_Group_37" data-name="Mask Group 37" clip-path="url(#clip-path)">
    <path id="_8674468_ic_fluent_calendar_ltr_regular_icon" data-name="8674468_ic_fluent_calendar_ltr_regular_icon" d="M18.62,4a3.221,3.221,0,0,1,3.221,3.221v11.4a3.221,3.221,0,0,1-3.221,3.221H7.221A3.221,3.221,0,0,1,4,18.62V7.221A3.221,3.221,0,0,1,7.221,4Zm1.735,5.451H5.487V18.62a1.735,1.735,0,0,0,1.735,1.735h11.4a1.735,1.735,0,0,0,1.735-1.735ZM8.708,15.4a1.239,1.239,0,1,1-1.239,1.239A1.239,1.239,0,0,1,8.708,15.4Zm4.212,0a1.239,1.239,0,1,1-1.239,1.239A1.239,1.239,0,0,1,12.921,15.4ZM8.708,11.434a1.239,1.239,0,1,1-1.239,1.239A1.239,1.239,0,0,1,8.708,11.434Zm4.212,0a1.239,1.239,0,1,1-1.239,1.239A1.239,1.239,0,0,1,12.921,11.434Zm4.212,0a1.239,1.239,0,1,1-1.239,1.239A1.239,1.239,0,0,1,17.133,11.434ZM18.62,5.487H7.221A1.735,1.735,0,0,0,5.487,7.221v.743H20.354V7.221A1.735,1.735,0,0,0,18.62,5.487Z" transform="translate(-0.921 -0.921)" fill="#212121"/>
  </g>
</svg>
