<svg width="9" height="14" viewBox="0 0 9 14" fill="none" xmlns="http://www.w3.org/2000/svg">
    <path d="M4.18608 13.2727V0.545454H5.00142V13.2727H4.18608ZM6.53764 4.61719C6.49124 4.183 6.29569 3.84493 5.95099 3.60298C5.60961 3.36103 5.16548 3.24006 4.61861 3.24006C4.23414 3.24006 3.90436 3.29806 3.62926 3.41406C3.35417 3.53007 3.1437 3.6875 2.99787 3.88636C2.85204 4.08523 2.77746 4.31226 2.77415 4.56747C2.77415 4.77959 2.82221 4.96354 2.91832 5.11932C3.01776 5.27509 3.15199 5.40767 3.32102 5.51705C3.49006 5.62311 3.67732 5.71259 3.88281 5.78551C4.08831 5.85843 4.29545 5.91974 4.50426 5.96946L5.45881 6.2081C5.84328 6.29758 6.21283 6.41856 6.56747 6.57102C6.92543 6.72348 7.24527 6.91572 7.52699 7.14773C7.81203 7.37973 8.03741 7.6598 8.20312 7.98793C8.36884 8.31605 8.4517 8.70052 8.4517 9.14134C8.4517 9.73793 8.29924 10.2633 7.99432 10.7173C7.68939 11.1681 7.24858 11.5211 6.67188 11.7763C6.09848 12.0282 5.40412 12.1541 4.58878 12.1541C3.79664 12.1541 3.1089 12.0315 2.52557 11.7862C1.94555 11.541 1.49148 11.183 1.16335 10.7124C0.838542 10.2417 0.662879 9.66832 0.636364 8.99219H2.45099C2.47751 9.34683 2.58688 9.64181 2.77912 9.87713C2.97135 10.1125 3.22159 10.2881 3.52983 10.4041C3.84138 10.5201 4.18939 10.5781 4.57386 10.5781C4.97491 10.5781 5.32623 10.5185 5.62784 10.3991C5.93277 10.2765 6.1714 10.1075 6.34375 9.89205C6.5161 9.6733 6.60393 9.41809 6.60724 9.12642C6.60393 8.86127 6.52604 8.64252 6.37358 8.47017C6.22112 8.29451 6.00734 8.14867 5.73224 8.03267C5.46046 7.91335 5.14228 7.80729 4.7777 7.71449L3.61932 7.41619C2.78078 7.20076 2.1179 6.87429 1.63068 6.43679C1.14678 5.99598 0.90483 5.41098 0.90483 4.68182C0.90483 4.08191 1.06723 3.55658 1.39205 3.10582C1.72017 2.65507 2.16596 2.3054 2.7294 2.05682C3.29285 1.80492 3.93087 1.67898 4.64347 1.67898C5.366 1.67898 5.99905 1.80492 6.54261 2.05682C7.08949 2.3054 7.5187 2.65175 7.83026 3.09588C8.14181 3.53669 8.30256 4.0438 8.3125 4.61719H6.53764Z" fill="white"/>
</svg>
