<svg xmlns="http://www.w3.org/2000/svg" xmlns:xlink="http://www.w3.org/1999/xlink" width="20" height="20" viewBox="0 0 20 20">

  <g id="Mask_Group_4" data-name="Mask Group 4" transform="translate(-3)" clip-path="url(#clip-path)">
    <path id="Path_11" data-name="Path 11" d="M127.609,16.655a1.9,1.9,0,0,1,2.06,1.667V31.655a1.9,1.9,0,0,1-2.06,1.667H115.849a1.9,1.9,0,0,1-2.06-1.667V18.321a1.9,1.9,0,0,1,2.06-1.667h11.761m0-1.667H115.849c-2.275,0-4.12,1.492-4.12,3.333V31.655c0,1.841,1.845,3.333,4.12,3.333h11.761c2.275,0,4.12-1.493,4.12-3.333V18.321c0-1.841-1.845-3.333-4.12-3.333Zm-2.226,7.539a.947.947,0,0,0-1.03-.833h-6.811a.852.852,0,1,0,0,1.667h6.811A.947.947,0,0,0,125.384,22.527Zm1.1,4.922a.948.948,0,0,0-1.03-.833h-7.908a.852.852,0,1,0,0,1.667h7.908A.948.948,0,0,0,126.481,27.449Z" transform="translate(-108.729 -14.988)" fill="#00b598"/>
  </g>
</svg>
