<svg xmlns="http://www.w3.org/2000/svg" xmlns:xlink="http://www.w3.org/1999/xlink" width="20" height="20" viewBox="0 0 20 20">

  <g id="Mask_Group_2" data-name="Mask Group 2" clip-path="url(#clip-path)">
    <path id="Path_10" data-name="Path 10" d="M37.652,17.146l7.819,6.438a1.673,1.673,0,0,1,.514,1.2v6.868a1.669,1.669,0,0,1-1.667,1.667H41.146v-3.5a2.5,2.5,0,0,0-2.5-2.5H36.657a2.5,2.5,0,0,0-2.5,2.5v3.5H30.985a1.668,1.668,0,0,1-1.667-1.667V24.787a1.672,1.672,0,0,1,.513-1.2l7.82-6.437m0-2.158L28.733,22.33a3.331,3.331,0,0,0-1.081,2.457v6.868a3.333,3.333,0,0,0,3.333,3.333h4.838V29.826a.834.834,0,0,1,.833-.833h1.989a.834.834,0,0,1,.833.833v5.162h4.839a3.333,3.333,0,0,0,3.333-3.333V24.787a3.335,3.335,0,0,0-1.081-2.457l-8.919-7.342Z" transform="translate(-27.652 -14.988)"/>
  </g>
</svg>
