<svg width="22" height="25" viewBox="0 0 22 25" fill="none" xmlns="http://www.w3.org/2000/svg">
    <path d="M21.026 5.30134C21.2934 5.56176 21.5226 5.91518 21.7135 6.36161C21.9045 6.80804 22 7.21726 22 7.58929V23.6607C22 24.0327 21.8663 24.349 21.599 24.6094C21.3316 24.8698 21.0069 25 20.625 25H1.375C0.993056 25 0.668403 24.8698 0.401042 24.6094C0.133681 24.349 0 24.0327 0 23.6607V1.33929C0 0.967262 0.133681 0.651042 0.401042 0.390625C0.668403 0.130208 0.993056 0 1.375 0H14.2083C14.5903 0 15.0104 0.093006 15.4688 0.279018C15.9271 0.46503 16.2899 0.688244 16.5573 0.948661L21.026 5.30134ZM14.6667 1.89732V7.14286H20.0521C19.9566 6.87314 19.8516 6.68248 19.737 6.57087L15.2539 2.20424C15.1393 2.09263 14.9436 1.99033 14.6667 1.89732ZM20.1667 23.2143V8.92857H14.2083C13.8264 8.92857 13.5017 8.79836 13.2344 8.53795C12.967 8.27753 12.8333 7.96131 12.8333 7.58929V1.78571H1.83333V23.2143H20.1667ZM5.5 11.1607C5.5 11.0305 5.54297 10.9235 5.62891 10.8398C5.71484 10.7561 5.82465 10.7143 5.95833 10.7143H16.0417C16.1753 10.7143 16.2852 10.7561 16.3711 10.8398C16.457 10.9235 16.5 11.0305 16.5 11.1607V12.0536C16.5 12.1838 16.457 12.2907 16.3711 12.3744C16.2852 12.4581 16.1753 12.5 16.0417 12.5H5.95833C5.82465 12.5 5.71484 12.4581 5.62891 12.3744C5.54297 12.2907 5.5 12.1838 5.5 12.0536V11.1607ZM16.0417 14.2857C16.1753 14.2857 16.2852 14.3276 16.3711 14.4113C16.457 14.495 16.5 14.6019 16.5 14.7321V15.625C16.5 15.7552 16.457 15.8622 16.3711 15.9459C16.2852 16.0296 16.1753 16.0714 16.0417 16.0714H5.95833C5.82465 16.0714 5.71484 16.0296 5.62891 15.9459C5.54297 15.8622 5.5 15.7552 5.5 15.625V14.7321C5.5 14.6019 5.54297 14.495 5.62891 14.4113C5.71484 14.3276 5.82465 14.2857 5.95833 14.2857H16.0417ZM16.0417 17.8571C16.1753 17.8571 16.2852 17.899 16.3711 17.9827C16.457 18.0664 16.5 18.1734 16.5 18.3036V19.1964C16.5 19.3266 16.457 19.4336 16.3711 19.5173C16.2852 19.601 16.1753 19.6429 16.0417 19.6429H5.95833C5.82465 19.6429 5.71484 19.601 5.62891 19.5173C5.54297 19.4336 5.5 19.3266 5.5 19.1964V18.3036C5.5 18.1734 5.54297 18.0664 5.62891 17.9827C5.71484 17.899 5.82465 17.8571 5.95833 17.8571H16.0417Z" fill="#33A9FF"/>
</svg>
