<svg xmlns="http://www.w3.org/2000/svg" xmlns:xlink="http://www.w3.org/1999/xlink" width="24" height="24" viewBox="0 0 24 24">
  <defs>
    <clipPath id="clip-path">
      <rect id="Rectangle_136" data-name="Rectangle 136" width="24" height="24" fill="#337077"/>
    </clipPath>
  </defs>
  <g id="Mask_Group_80" data-name="Mask Group 80" clip-path="url(#clip-path)">
    <g id="icons" transform="translate(-0.301 -0.304)">
      <g id="user" transform="translate(2.377 2.396)">
        <ellipse id="Ellipse_10" data-name="Ellipse 10" cx="4.954" cy="5.945" rx="4.954" ry="5.945" transform="translate(4.97)" fill="#337077"/>
        <path id="Path_199" data-name="Path 199" d="M22.01,21.984a9.029,9.029,0,0,0-4.756-4.161,2.218,2.218,0,0,0-1.783.1,6.082,6.082,0,0,1-6.341,0,2.23,2.23,0,0,0-1.783,0,9.029,9.029,0,0,0-4.756,4.161,1.955,1.955,0,0,0,1.882,2.774H20.128A2.007,2.007,0,0,0,22.01,21.984Z" transform="translate(-2.377 -5.042)" fill="#337077"/>
      </g>
    </g>
  </g>
</svg>
