<svg xmlns="http://www.w3.org/2000/svg" xmlns:xlink="http://www.w3.org/1999/xlink" width="20" height="20" viewBox="0 0 20 20">
  <g id="Mask_Group_3" data-name="Mask Group 3" clip-path="url(#clip-path)">
    <g id="Group_14" data-name="Group 14" transform="translate(0 0)">
      <g id="Group_9" data-name="Group 9">
        <path id="Path_6" data-name="Path 6" d="M155.243,127.286a1.749,1.749,0,0,1,1.818,1.667v13.333a1.75,1.75,0,0,1-1.818,1.667H142.515a1.75,1.75,0,0,1-1.818-1.667V128.952a1.749,1.749,0,0,1,1.818-1.667h12.727m0-1.667H142.515a3.494,3.494,0,0,0-3.636,3.333v13.333a3.5,3.5,0,0,0,3.636,3.333h12.727a3.5,3.5,0,0,0,3.636-3.333V128.952a3.494,3.494,0,0,0-3.636-3.333Z" transform="translate(-138.879 -125.619)"/>
      </g>
      <g id="Group_11" data-name="Group 11" transform="translate(12.698 12.314)">
        <path id="Path_8" data-name="Path 8" d="M154.028,140.67h-.542a1,1,0,0,1,0-2h.542a1,1,0,0,1,0,2Z" transform="translate(-152.486 -138.67)"/>
      </g>
      <g id="Group_12" data-name="Group 12" transform="translate(5.12 4.894)">
        <path id="Path_9" data-name="Path 9" d="M150.8,133.384h0a.783.783,0,0,0-.784-.783h-5.592a.783.783,0,0,0-.784.783h0a.784.784,0,0,0,.784.783h1.344a1.981,1.981,0,0,1,.952.212,1.416,1.416,0,0,1,.6.622,1.673,1.673,0,0,1,.08.229h-2.976a.784.784,0,1,0,0,1.567h2.95a1.762,1.762,0,0,1-.061.173,1.434,1.434,0,0,1-.6.625,1.939,1.939,0,0,1-.942.216h-1.341a.774.774,0,0,0-.633.344c0,.005-.009.006-.013.011s-.011.026-.02.038a.758.758,0,0,0-.068.133.888.888,0,0,0,.229,1.1l4.492,3.589a.9.9,0,1,0,1.124-1.406l-2.894-2.312a3.817,3.817,0,0,0,1.01-.3,2.7,2.7,0,0,0,1.212-1.11,3.2,3.2,0,0,0,.344-1.1h.806a.784.784,0,1,0,0-1.567h-.832a2.89,2.89,0,0,0-.282-.74,2.4,2.4,0,0,0-.253-.323h1.367A.784.784,0,0,0,150.8,133.384Z" transform="translate(-143.6 -132.6)"/>
      </g>
    </g>
  </g>
</svg>
