<svg xmlns="http://www.w3.org/2000/svg" xmlns:xlink="http://www.w3.org/1999/xlink" width="30" height="30" viewBox="0 0 30 30">

  <g id="Mask_Group_16" data-name="Mask Group 16" transform="translate(641 -1401)" clip-path="url(#clip-path)">
    <path id="Path_77" data-name="Path 77" d="M159.684,29.267h0c-.079-.06-.164-.1-.245-.158a5.452,5.452,0,0,0-7.579-7.235L145.123,25.8h0l-5.85,3.409a5.456,5.456,0,0,0-1.968,7.461h0a5.454,5.454,0,0,0,7.461,1.967l1.561-.909-3.154,4.114a5.456,5.456,0,0,0,8.661,6.638l4.119-5.374,4.743-6.189A5.456,5.456,0,0,0,159.684,29.267ZM152.3,22.636a4.566,4.566,0,0,1,6.365,6.031,5.408,5.408,0,0,0-6.634,1.612l-2.2,2.867a14.99,14.99,0,0,1-3.641-6.951Zm-7.981,15.237a4.574,4.574,0,1,1-4.606-7.9l5.593-3.259a14.981,14.981,0,0,0,3.912,7.238l-1.481,1.931Zm6.813,10.069a4.574,4.574,0,1,1-7.261-5.564l3.937-5.138a15,15,0,0,0,7.261,5.564ZM160,36.38l-4.3,5.61a14.98,14.98,0,0,1-7.226-5.512c-.012-.017-.023-.035-.035-.052l1.314-1.714.11-.144.055-.071.483-.63.056-.072,2.283-2.978a4.586,4.586,0,0,1,6.241-.959c.056.039.116.069.171.111A4.572,4.572,0,0,1,160,36.38Z" transform="translate(-775.192 1380.126)"/>
  </g>
</svg>
