<?xml version="1.0" ?><svg xmlns="http://www.w3.org/2000/svg" xmlns:xlink="http://www.w3.org/1999/xlink" width="20" height="20" viewBox="0 0 20 20">
  <g id="Mask_Group_85"  transform="translate(-65 -188)" clip-path="url(#clip-path)">
    <path id="_8541713_crown_icon" d="M16.5,14H3.5a.5.5,0,0,0-.5.5v1a.5.5,0,0,0,.5.5h13a.5.5,0,0,0,.5-.5v-1A.5.5,0,0,0,16.5,14Zm2-10A1.5,1.5,0,0,0,17,5.5a1.469,1.469,0,0,0,.138.619L14.875,7.475a1,1,0,0,1-1.381-.362L10.947,2.656a1.5,1.5,0,1,0-1.894,0L6.506,7.113a1,1,0,0,1-1.381.363L2.866,6.119A1.5,1.5,0,1,0,1.5,7a1.532,1.532,0,0,0,.241-.025L4,13H16l2.259-6.025A1.532,1.532,0,0,0,18.5,7a1.5,1.5,0,0,0,0-3Z" transform="translate(65 190)" fill="#337077"/>
  </g>
</svg>
