<svg xmlns="http://www.w3.org/2000/svg" xmlns:xlink="http://www.w3.org/1999/xlink" width="24" height="24" viewBox="0 0 24 24">

  <g id="Mask_Group_78" data-name="Mask Group 78" clip-path="url(#clip-path)">
    <path id="_8541920_info_circle_icon" data-name="8541920_info_circle_icon" d="M10.606.387A10.219,10.219,0,1,0,20.825,10.606,10.221,10.221,0,0,0,10.606.387Zm0,4.533A1.731,1.731,0,1,1,8.876,6.65,1.731,1.731,0,0,1,10.606,4.92Zm2.308,10.466a.494.494,0,0,1-.494.494H8.793a.494.494,0,0,1-.494-.494V14.4a.494.494,0,0,1,.494-.494h.494V11.266H8.793a.494.494,0,0,1-.494-.494V9.782a.494.494,0,0,1,.494-.494H11.43a.494.494,0,0,1,.494.494V13.9h.494a.494.494,0,0,1,.494.494Z" transform="translate(1.394 1.394)" fill="#337077"/>
  </g>
</svg>
