<svg xmlns="http://www.w3.org/2000/svg" xmlns:xlink="http://www.w3.org/1999/xlink" width="20" height="20" viewBox="0 0 20 20">
  <g id="Mask_Group_59" data-name="Mask Group 59" transform="translate(-24 -15)" clip-path="url(#clip-path)">
    <path id="Path_169" data-name="Path 169" d="M338.153,187.995l-8.169-3.36a1.694,1.694,0,0,0-1.286,0l-8.169,3.36a1.69,1.69,0,0,0-1.047,1.563v9.9a1.69,1.69,0,0,0,1.047,1.563l8.169,3.36a1.694,1.694,0,0,0,1.286,0l8.169-3.36a1.691,1.691,0,0,0,1.048-1.563v-9.9A1.691,1.691,0,0,0,338.153,187.995Zm-8.812-1.8,7.67,3.155-7.316,3.38a.843.843,0,0,1-.708,0l-7.315-3.38Zm-8.169,4.785,7.106,3.284c.045.02.092.028.137.046v8.125l-7.243-2.979Zm8.932,11.523v-8.139a2.463,2.463,0,0,0,.3-.1l7.107-3.284v8.476Z" transform="translate(-295.152 -169.345)"/>
  </g>
</svg>
