<svg xmlns="http://www.w3.org/2000/svg" xmlns:xlink="http://www.w3.org/1999/xlink" width="20" height="20" viewBox="0 0 20 20">

  <g id="Mask_Group_14" data-name="Mask Group 14" transform="translate(-25 -15)" clip-path="url(#clip-path)">
    <g id="Group_102" data-name="Group 102" transform="translate(-113.145 -295.878)">
      <path id="Path_74" data-name="Path 74" d="M150.527,324.1a3.356,3.356,0,0,1,3.224,3.467v2.6a.839.839,0,0,1-.806.867H142.087a.839.839,0,0,1-.806-.867v-2.6a3.356,3.356,0,0,1,3.224-3.467h6.021m0-1.734h-6.021a5.028,5.028,0,0,0-4.836,5.2v2.6a2.515,2.515,0,0,0,2.418,2.6h10.858a2.515,2.515,0,0,0,2.418-2.6v-2.6a5.029,5.029,0,0,0-4.836-5.2Z" transform="translate(0.629 -1.895)"/>
      <path id="Path_75" data-name="Path 75" d="M148.307,312.328a2.43,2.43,0,1,1-2.43,2.43,2.433,2.433,0,0,1,2.43-2.43m0-1.57a4,4,0,1,0,4,4,4,4,0,0,0-4-4Z" transform="translate(-0.162 1)"/>
    </g>
  </g>
</svg>
