<svg xmlns="http://www.w3.org/2000/svg" xmlns:xlink="http://www.w3.org/1999/xlink" width="24" height="24" viewBox="0 0 24 24">

  <g id="Mask_Group_76" data-name="Mask Group 76" clip-path="url(#clip-path)">
    <path id="XMLID_328_" d="M22.963,9.728a1.48,1.48,0,0,0-1.18-1l-5.568-.834-2.506-5.32a1.463,1.463,0,0,0-2.662,0l-2.47,5.3-5.6.853a1.481,1.481,0,0,0-1.18,1,1.527,1.527,0,0,0,.354,1.559L6.2,15.435l-.958,5.847a1.511,1.511,0,0,0,.618,1.492,1.439,1.439,0,0,0,1.539.087L12.343,20.1l5.013,2.761a1.442,1.442,0,0,0,1.539-.087,1.51,1.51,0,0,0,.618-1.492l-.959-5.855,4.055-4.141A1.527,1.527,0,0,0,22.963,9.728Z" transform="translate(-0.379 -0.379)" fill="#337077"/>
  </g>
</svg>
