<svg xmlns="http://www.w3.org/2000/svg" xmlns:xlink="http://www.w3.org/1999/xlink" width="24" height="24" viewBox="0 0 24 24">

  <g id="Mask_Group_68" data-name="Mask Group 68" clip-path="url(#clip-path)">
    <g id="_6619631_and_ecommerce_shopping_tie_icon" data-name="6619631_and_ecommerce_shopping_tie_icon" transform="translate(6.991 0)">
      <path id="Path_191" data-name="Path 191" d="M10.783,6.957h6.261l1.391-2.7a1.6,1.6,0,0,0-.087-1.652,2.029,2.029,0,0,0-1.478-.87H10.957a1.937,1.937,0,0,0-1.478.783,1.6,1.6,0,0,0-.087,1.652Z" transform="translate(-8.817 -1.739)" fill="#337077"/>
      <path id="Path_192" data-name="Path 192" d="M18.087,15.652H13.913a.87.87,0,1,1,0-1.739h3.826L16.7,8.7H11.13L8.87,19.826a2.579,2.579,0,0,0,.7,2.348l3.043,3.043a1.681,1.681,0,0,0,2.435,0l3.043-3.043a2.579,2.579,0,0,0,.7-2.348Z" transform="translate(-8.817 -1.739)" fill="#337077"/>
    </g>
  </g>
</svg>
