<svg xmlns="http://www.w3.org/2000/svg" xmlns:xlink="http://www.w3.org/1999/xlink" width="24" height="24" viewBox="0 0 24 24">

  <g id="Mask_Group_50" data-name="Mask Group 50" transform="translate(-268 -163)" clip-path="url(#clip-path)">
    <g id="_1" data-name="1" transform="translate(265.657 161.853)">
      <path id="Path_149" data-name="Path 149" d="M20.5,23.444a.81.81,0,0,1-.381-.094l-5.78-3.04L8.562,23.35a.816.816,0,0,1-1.183-.86l1.1-6.438L3.8,11.493A.816.816,0,0,1,4.256,10.1l6.464-.939L13.611,3.3a.816.816,0,0,1,1.464,0l2.891,5.858,6.464.939a.816.816,0,0,1,.453,1.392L20.2,16.053l1.1,6.438a.816.816,0,0,1-.8.954ZM6.127,11.479l3.8,3.7a.816.816,0,0,1,.235.72l-.9,5.231,4.7-2.468a.816.816,0,0,1,.762,0l4.7,2.47-.9-5.232a.816.816,0,0,1,.235-.722l3.8-3.7-5.252-.762a.816.816,0,0,1-.614-.446L14.343,5.512l-2.349,4.759a.816.816,0,0,1-.615.446Z" transform="translate(0)"/>
    </g>
  </g>
</svg>
