<svg xmlns="http://www.w3.org/2000/svg" xmlns:xlink="http://www.w3.org/1999/xlink" width="24" height="24" viewBox="0 0 24 24">

  <g id="Mask_Group_75" data-name="Mask Group 75" clip-path="url(#clip-path)">
    <g id="_8680316_headphone_fill_icon" data-name="8680316_headphone_fill_icon">
      <path id="Path_197" data-name="Path 197" d="M0,0H24V24H0Z" fill="none"/>
      <path id="Path_198" data-name="Path 198" d="M4,12H7a2,2,0,0,1,2,2v5a2,2,0,0,1-2,2H4a2,2,0,0,1-2-2V12a10,10,0,0,1,20,0v7a2,2,0,0,1-2,2H17a2,2,0,0,1-2-2V14a2,2,0,0,1,2-2h3A8,8,0,0,0,4,12Z" fill="#337077"/>
    </g>
  </g>
</svg>
