<svg xmlns="http://www.w3.org/2000/svg" width="23.957" height="19.873" viewBox="0 0 23.957 19.873">
  <g id="wallet" transform="translate(-0.5 467.875)">
    <path id="Path_1769" data-name="Path 1769" d="M3.463-467.829a3.508,3.508,0,0,0-2.855,2.48L.5-465v14.111l.108.352a3.472,3.472,0,0,0,2.921,2.48c.544.07,17.356.07,17.9,0a3.472,3.472,0,0,0,2.921-2.48l.108-.352V-465l-.108-.352a3.472,3.472,0,0,0-2.921-2.48C20.945-467.89,3.941-467.89,3.463-467.829ZM21.55-466.4a2.165,2.165,0,0,1,1.425,1.336,6.224,6.224,0,0,1,.1,1.969v1.678l-2.822.019c-3.136.019-3.024,0-3.727.342a3.454,3.454,0,0,0-1.153,5.326,3.746,3.746,0,0,0,1.772,1.144,16.98,16.98,0,0,0,3.108.1l2.822.019v1.678a6.224,6.224,0,0,1-.1,1.969,2.249,2.249,0,0,1-.83,1.064c-.558.375.178.347-9.667.347s-9.109.028-9.667-.347a2.249,2.249,0,0,1-.83-1.064l-.1-.3v-13.652l.1-.3a2.185,2.185,0,0,1,1.374-1.322c.267-.075.849-.084,9.09-.084C20.411-466.474,21.278-466.465,21.55-466.4Zm1.524,8.457v2.063H20.387a18.715,18.715,0,0,1-2.925-.07,2.094,2.094,0,0,1-1.477-1.664,2.083,2.083,0,0,1,1.458-2.316,19.924,19.924,0,0,1,2.925-.07l2.705,0Z"/>
    <path id="Path_1770" data-name="Path 1770" d="M360.176-270.685a.7.7,0,0,0-.277,1.13c.183.192.422.239,1.078.22.492-.009.6-.028.7-.113a.627.627,0,0,0,.309-.581.627.627,0,0,0-.309-.581c-.113-.084-.206-.1-.745-.108A4.533,4.533,0,0,0,360.176-270.685Z" transform="translate(-342.377 -187.913)"/>
  </g>
</svg>
